<svg width="60" height="60" viewBox="0 0 60 60" fill="none" xmlns="http://www.w3.org/2000/svg">
<path d="M51.8643 8.32126C50.888 7.34494 49.305 7.34494 48.3288 8.32126L30.0928 26.5572L11.8569 8.32126C10.8806 7.34494 9.29766 7.34494 8.32136 8.32126C7.34503 9.29756 7.34503 10.8805 8.32136 11.8568L26.5573 30.0927L8.32141 48.3285C7.34508 49.305 7.34508 50.8877 8.32141 51.8642C9.29771 52.8405 10.8806 52.8405 11.8569 51.8642L30.0928 33.6282L48.3288 51.8642C49.305 52.8405 50.888 52.8405 51.8643 51.8642C52.8405 50.8877 52.8405 49.305 51.8643 48.3287L33.6283 30.0927L51.8643 11.8568C52.8405 10.8805 52.8405 9.29756 51.8643 8.32126Z" fill="#0F0F0F"/>
</svg>
