<svg width="55" height="64" viewBox="0 0 55 64" fill="none" xmlns="http://www.w3.org/2000/svg">
<path d="M45.3198 20.1771C45.1701 20.0256 45.002 19.8869 44.8173 19.7638L44.6281 19.7243C44.5289 19.6812 44.45 19.6104 44.3984 19.5249C44.1026 19.3853 43.793 19.2953 43.478 19.2503C43.206 19.2126 43.015 18.96 43.0545 18.6862C43.0912 18.4124 43.3456 18.2214 43.6176 18.259C43.9291 18.3049 44.2412 18.384 44.5408 18.5016C44.5894 18.2829 44.617 18.0597 44.617 17.8347C44.616 17.3422 44.5004 16.8453 44.2541 16.3777C43.973 15.8431 43.5606 15.426 43.0783 15.1414C42.6557 14.8915 42.178 14.7427 41.6875 14.7078C41.6518 15.1551 41.5452 15.6006 41.3596 16.0323C41.2493 16.2858 40.9564 16.4025 40.702 16.2932C40.4484 16.1848 40.3308 15.8909 40.4402 15.6373C40.6183 15.2213 40.702 14.7932 40.7038 14.3687L40.6974 14.1878C40.6634 13.5999 40.4686 13.0322 40.137 12.5481C39.8054 12.0648 39.3406 11.669 38.7619 11.4182C38.3467 11.2409 37.9168 11.1573 37.4932 11.1573C36.6821 11.1573 35.8967 11.4697 35.3034 12.0208C35.4145 12.3983 35.4779 12.7961 35.4779 13.2095C35.4779 13.4851 35.2519 13.7092 34.9763 13.7092C34.7007 13.7092 34.4757 13.4851 34.4757 13.2095C34.4757 12.8044 34.4012 12.4204 34.2653 12.0631H34.2662C34.0356 11.4614 33.6278 10.9433 33.1052 10.5777C32.5843 10.2122 31.9532 9.99811 31.2661 9.99811C30.67 9.99811 30.1142 10.1608 29.6365 10.4418C29.2544 10.6677 28.9246 10.9728 28.6656 11.331C29.1718 12.0245 29.4712 12.8816 29.4712 13.8058C29.4712 14.0813 29.2462 14.3045 28.9696 14.3045C28.694 14.3045 28.469 14.0813 28.469 13.8058C28.469 12.9938 28.1704 12.2551 27.6735 11.6902C27.0838 11.0168 26.2231 10.5953 25.2585 10.5953C24.5889 10.5953 23.9725 10.7983 23.4571 11.1474C22.9436 11.4965 22.5348 11.9906 22.2932 12.5712C22.1371 12.9505 22.0479 13.3685 22.0479 13.8058C22.0479 14.0813 21.8247 14.3045 21.5482 14.3045C21.2717 14.3045 21.0486 14.0813 21.0486 13.8058C21.0486 13.3997 21.1074 13.0084 21.2139 12.6354C20.8373 12.483 20.4295 12.3985 20.0106 12.3985C19.7727 12.3985 19.5339 12.426 19.2913 12.4803C18.5785 12.6447 17.9823 13.0287 17.5459 13.5485C17.2318 13.9234 17.0076 14.3689 16.891 14.8474C17.9245 14.8657 18.9569 15.2653 19.7543 16.0462C19.951 16.24 19.9546 16.556 19.7617 16.7526C19.5679 16.951 19.2518 16.9528 19.0544 16.7608C18.4279 16.15 17.6205 15.844 16.8084 15.8431C16.6633 15.8431 16.5181 15.8531 16.3729 15.8715H16.3711H16.3702C15.6896 15.9661 15.0337 16.2765 14.5128 16.8076C13.9009 17.4322 13.5978 18.2388 13.597 19.0527C13.597 19.5167 13.698 19.9841 13.9 20.4141C14.057 20.753 14.2776 21.069 14.5623 21.3464V21.3472C14.8839 21.6633 15.255 21.8966 15.651 22.0491C15.9072 22.1493 16.0368 22.4386 15.9358 22.6957C15.8357 22.9548 15.5472 23.0835 15.2891 22.9824C14.772 22.7821 14.2833 22.4754 13.8606 22.061C13.6761 21.8792 13.5115 21.6853 13.3656 21.4797C12.988 22.0207 12.7832 22.6682 12.7832 23.3278C12.7832 23.8387 12.9054 24.3539 13.1635 24.838C13.4537 25.38 13.8736 25.8026 14.3678 26.091C14.7582 26.3197 15.1946 26.464 15.6447 26.5145L15.6438 26.4842C15.6438 26.2196 15.6686 25.9606 15.7136 25.7089C15.765 25.437 16.0268 25.2596 16.297 25.3083C16.5688 25.3588 16.748 25.6197 16.6993 25.8915C16.6634 26.0835 16.6442 26.2828 16.6442 26.484L16.6524 26.7165L16.679 26.9508V26.9535L16.6799 26.9581C16.9096 28.5271 18.2655 29.7 19.8528 29.7L20.0834 29.6909H20.0843C20.7879 29.6404 21.4199 29.3684 21.9215 28.945C22.2733 28.6483 22.5617 28.2763 22.7593 27.8573C22.8759 27.6065 23.1762 27.5001 23.4252 27.6184C23.6751 27.7361 23.7817 28.0336 23.6641 28.2836C23.4501 28.7346 23.1579 29.1415 22.8071 29.4878C23.0036 30.0923 23.3729 30.6113 23.8552 30.9971C24.4064 31.439 25.1017 31.6998 25.8531 31.6998L26.0847 31.6907H26.0856C26.5614 31.6567 27.0014 31.5198 27.3919 31.3067C27.3312 31.0192 27.2964 30.7253 27.2964 30.4276C27.2964 29.8139 27.4333 29.1884 27.7162 28.6005C27.8365 28.3515 28.135 28.2477 28.3831 28.3681C28.632 28.4865 28.7377 28.7861 28.6173 29.035C28.3996 29.486 28.2977 29.9601 28.2977 30.4276C28.2977 30.7546 28.3482 31.0807 28.4455 31.3902H28.4465C28.7028 32.2069 29.2816 32.9207 30.1146 33.3211C30.5648 33.5388 31.0388 33.6408 31.5054 33.6408C32.2468 33.6408 32.9716 33.3817 33.5466 32.9124L33.5485 32.9114C33.8976 32.6239 34.1897 32.2601 34.4 31.8256L34.4009 31.8237C34.5966 31.4178 34.6995 30.9925 34.7168 30.568C34.7297 30.2924 34.9621 30.0775 35.2395 30.0904C35.5151 30.1023 35.7282 30.3355 35.7162 30.6112C35.6923 31.1678 35.5573 31.7299 35.301 32.26V32.259C35.0952 32.6881 34.8243 33.0656 34.5065 33.388C35.0962 34.2349 36.0773 34.7687 37.1383 34.7678C37.3348 34.7678 37.5351 34.7495 37.7363 34.7108C38.5088 34.5658 39.1601 34.1569 39.6231 33.5947C40.0852 33.0315 40.3544 32.316 40.3544 31.5608L40.3534 31.493V31.4892C40.3498 31.3193 40.3323 31.1412 40.2993 30.9619C40.2194 30.5366 40.0567 30.1507 39.8336 29.8099C39.5103 29.5252 39.1511 29.1532 38.8122 28.7398C38.4511 28.2989 38.1187 27.8166 37.8954 27.3307C37.7485 27.0055 37.6437 26.6767 37.6418 26.3304C37.6418 26.177 37.6629 26.0181 37.7208 25.8656C37.7768 25.7104 37.8687 25.5634 37.9918 25.4421C38.1865 25.2483 38.5025 25.2483 38.6982 25.4421C38.8929 25.6387 38.8929 25.9565 38.6982 26.1504L38.6604 26.2102L38.6412 26.3305C38.6393 26.4564 38.6917 26.6696 38.8047 26.9147C38.9167 27.1592 39.083 27.4337 39.2787 27.7047C39.6664 28.2476 40.1689 28.7805 40.5473 29.1055L40.5987 29.1497L40.6364 29.2057C40.9461 29.6669 41.1729 30.1978 41.2822 30.7774V30.7784L41.318 31.0264L41.4678 31.0328C42.1016 31.0319 42.74 30.8445 43.3013 30.4504C43.7478 30.1362 44.0876 29.733 44.3173 29.28C44.5478 28.8263 44.6682 28.3247 44.6682 27.8195C44.6682 27.3464 44.5615 26.8715 44.3485 26.4297C44.1509 26.4931 43.9506 26.5436 43.7477 26.5785C43.4758 26.6271 43.2176 26.4424 43.169 26.1707C43.1229 25.8979 43.3068 25.6406 43.5787 25.5928C44.4641 25.4404 45.2753 24.9242 45.7769 24.0955C46.0947 23.5747 46.2445 23.0015 46.2445 22.4347C46.2445 21.5997 45.922 20.7831 45.3212 20.1777L45.3198 20.1771ZM22.4036 16.3613C22.8812 15.7963 23.5151 15.3948 24.1967 15.1321C24.8811 14.8694 25.6141 14.7435 26.3178 14.7435C27.0021 14.7444 27.6598 14.8602 28.2183 15.1193C28.4682 15.2331 28.5775 15.5317 28.4617 15.7825C28.3469 16.0324 28.0502 16.1426 27.7976 16.0269C27.4118 15.846 26.8836 15.7422 26.3178 15.7422C25.7354 15.7422 25.1145 15.8495 24.5568 16.0664C23.9992 16.2804 23.5096 16.6001 23.1651 17.0062C22.9887 17.2174 22.6718 17.245 22.4605 17.065C22.2502 16.8867 22.2236 16.5716 22.4036 16.3613ZM33.7868 28.1872C33.2054 28.1872 32.678 28.1212 32.1967 28.0101C32.2096 28.1478 32.2188 28.3012 32.2188 28.4638C32.2188 28.7899 32.1829 29.1627 32.0809 29.5541C31.978 29.9445 31.8045 30.3551 31.5307 30.7492C31.3737 30.977 31.0622 31.033 30.8354 30.8759C30.6075 30.7187 30.5525 30.4083 30.7076 30.1796C30.9096 29.8883 31.0355 29.5907 31.1127 29.2977C31.19 29.0047 31.2184 28.7199 31.2184 28.4637C31.2194 28.11 31.1651 27.8188 31.1266 27.6525C30.8822 27.5422 30.6571 27.4183 30.4469 27.2795C29.6091 26.7375 29.0488 26.022 28.6969 25.3412C28.4609 24.8847 28.3175 24.4438 28.2404 24.0607C28.1963 23.8421 28.1743 23.6438 28.1743 23.4635C28.1743 23.1862 28.3984 22.962 28.6749 22.962C28.9513 22.962 29.1755 23.1862 29.1755 23.4635C29.1746 23.6086 29.2059 23.8521 29.2848 24.1287C29.3638 24.4061 29.4897 24.7212 29.6716 25.0381C30.0363 25.6756 30.6159 26.314 31.5106 26.7284C32.1086 27.0058 32.8526 27.1858 33.7868 27.1858C34.0633 27.1858 34.2875 27.4099 34.2875 27.6864C34.2875 27.9632 34.0634 28.1872 33.7868 28.1872ZM37.3088 24.5349C37.2059 24.7903 36.9147 24.9153 36.6575 24.8132C36.4012 24.7103 36.2781 24.421 36.3791 24.1647V24.1637L36.382 24.1563L36.3967 24.1123L36.4482 23.9323C36.4859 23.7743 36.5245 23.5511 36.5245 23.3058L36.5235 23.2709C35.8364 23.5042 35.1989 23.6088 34.612 23.6088C33.7246 23.6107 32.9567 23.3673 32.332 22.9981C31.7064 22.6289 31.2196 22.1401 30.8557 21.6431C30.4424 21.0801 29.9004 20.5749 29.2795 20.2176C28.6567 19.8592 27.9604 19.6462 27.2209 19.6443C26.5734 19.6462 25.8844 19.8078 25.1651 20.2028C24.4826 20.5776 24.0435 21.0763 23.7597 21.6238C23.4777 22.1722 23.3583 22.7711 23.3591 23.3168C23.3573 23.822 23.4639 24.2794 23.6025 24.5679C23.721 24.8178 23.6136 25.1154 23.3646 25.2339C23.1157 25.3525 22.8171 25.2449 22.6987 24.996C22.4809 24.5347 22.3598 23.9542 22.3579 23.3168C22.3588 22.683 22.4847 21.9903 22.7943 21.328C22.1734 21.4687 21.5965 21.5311 21.0711 21.5311C20.7872 21.5311 20.5198 21.5127 20.2654 21.4797L20.1726 21.6671L20.1716 21.6688L20.1643 21.6763L20.1377 21.7103L20.031 21.8554C19.9401 21.9859 19.8142 22.176 19.6773 22.4185C19.4045 22.8989 19.0922 23.5769 18.9406 24.3382C18.8864 24.6093 18.6237 24.7866 18.3527 24.7314C18.0817 24.6772 17.9052 24.4145 17.9614 24.1417C18.1414 23.2387 18.497 22.4707 18.8065 21.9242C18.9681 21.6413 19.1161 21.4172 19.2244 21.2646C18.8166 21.1425 18.4639 20.9928 18.1755 20.8402C17.5169 20.4901 17.1741 20.1393 17.1448 20.1108C16.9537 19.9115 16.9592 19.5954 17.1576 19.4035C17.3569 19.2124 17.672 19.218 17.864 19.4145L17.8696 19.42L17.8989 19.4485L18.0422 19.5687C18.1725 19.6716 18.3739 19.8131 18.6429 19.9563C19.183 20.2411 19.9896 20.5296 21.0708 20.5315C21.8304 20.5315 22.7261 20.3864 23.7668 19.9859C24.0305 19.7406 24.3345 19.5165 24.6836 19.3254C25.5398 18.8561 26.4023 18.6448 27.2207 18.6448C28.1559 18.6448 29.0257 18.9168 29.779 19.3503C30.5323 19.7857 31.1707 20.3819 31.6621 21.0524C31.9607 21.4574 32.3529 21.8497 32.8389 22.1353C33.3276 22.422 33.9053 22.6085 34.6117 22.6094C35.0958 22.6094 35.6414 22.5194 36.2588 22.3026C36.1082 22.0609 35.884 21.8276 35.5148 21.6163C35.2741 21.4794 35.1886 21.1745 35.3246 20.9347C35.4614 20.6931 35.7655 20.6104 36.0061 20.7446C36.5977 21.0781 36.9937 21.5199 37.2232 21.9819C37.4556 22.4421 37.5245 22.9088 37.5245 23.3057C37.5218 23.9985 37.3225 24.4991 37.3088 24.5349ZM37.1214 18.407C35.9529 18.407 34.9306 18.0919 34.1038 17.6152C33.9872 17.7769 33.831 17.9799 33.6298 18.2003C33.177 18.6973 32.5118 19.2806 31.6218 19.6002C31.36 19.6921 31.0752 19.558 30.9824 19.2972C30.8896 19.0362 31.0265 18.7506 31.2846 18.6587C31.9415 18.4245 32.4907 17.9643 32.8711 17.5481C33.0475 17.358 33.1844 17.178 33.2836 17.0401C32.7903 16.6232 32.4009 16.1482 32.1336 15.6596C31.8801 15.191 31.733 14.7079 31.7313 14.2384C31.7313 13.9629 31.9554 13.7387 32.2319 13.7387C32.5075 13.7387 32.7316 13.9629 32.7316 14.2384C32.7297 14.4911 32.8179 14.8282 33.0126 15.1819C33.2045 15.5364 33.4967 15.9056 33.8788 16.2365C34.6431 16.8988 35.7463 17.4058 37.1215 17.4058C37.398 17.4058 37.6212 17.6309 37.6212 17.9073C37.6211 18.1828 37.3979 18.407 37.1214 18.407ZM41.0639 25.4499C40.8885 25.6612 40.5725 25.6923 40.3594 25.515C40.1464 25.3396 40.117 25.0237 40.2914 24.8114C40.8371 24.1491 41.0383 23.4822 41.04 22.8439C41.0419 22.2624 40.8637 21.701 40.5844 21.2281C40.3088 20.7558 39.9277 20.3774 39.5611 20.1671C39.3149 20.0256 39.0835 19.9622 38.8997 19.9622C38.6232 19.9622 38.4 19.7391 38.4 19.4625C38.4 19.1861 38.6233 18.9619 38.8997 18.9619C39.2037 18.9619 39.5014 19.0363 39.7844 19.1612C40.0663 19.2844 40.3328 19.4598 40.5808 19.6739C41.0759 20.1019 41.4966 20.6843 41.7612 21.3669C41.9357 21.8224 42.0422 22.3222 42.0422 22.844C42.0432 23.7018 41.7502 24.6203 41.0639 25.4499Z" fill="black"/>
<path d="M17.4434 50.5073L17.4775 50.5376C17.4765 50.5367 17.4765 50.5367 17.4756 50.5357L17.4434 50.5073Z" fill="black"/>
<path d="M47.4714 10.0441C43.75 5.69267 38.1531 2.72935 30.9816 2.29657C30.3982 2.26071 29.8177 2.24243 29.2426 2.24243C23.2111 2.24243 17.6628 4.20087 13.5953 7.7963C9.52502 11.3825 6.99061 16.6332 6.99975 22.9219C6.99975 23.0643 7.00068 23.2067 7.00338 23.35L6.99705 24.1087L1.81982 33.2514C1.5415 33.7447 1.40088 34.295 1.40088 34.8453C1.40088 35.3044 1.49838 35.7657 1.69572 36.1955C2.11373 37.1077 2.9358 37.7636 3.90951 37.9895L3.90764 37.9977L6.28865 38.6536L7.22932 47.7267L7.2367 47.7257C7.30291 49.0476 7.8926 50.2886 8.89396 51.1594C9.78412 51.9347 10.9204 52.3554 12.0888 52.3554C12.2072 52.3554 12.3239 52.3444 12.4416 52.3362L15.1395 52.5502L15.2746 52.5356L15.3177 52.5337C15.4214 52.5337 15.518 52.5705 15.5924 52.6375L15.5969 52.6422C15.6824 52.7193 15.7329 52.8323 15.7329 52.9481V62.2424H40.9235V60.8315C40.9235 60.8315 40.9235 57.0093 40.9235 55.4845C40.9207 54.8708 41.0429 53.6574 41.2837 52.487C41.4031 51.9002 41.5508 51.3149 41.7182 50.8089C41.8835 50.3037 42.0747 49.8738 42.2344 49.623C43.9099 46.9223 46.279 44.7067 48.4486 41.5734C50.6156 38.4428 52.4629 34.3817 52.969 28.2197C53.0333 27.4472 53.0656 26.6746 53.0656 25.9059C53.0656 20.0642 51.199 14.3917 47.4714 10.0441ZM50.1564 27.9843C49.6668 33.7118 48.0647 37.139 46.1245 39.9729C44.1873 42.8041 41.7917 45.0298 39.8414 48.1265C39.5016 48.674 39.2526 49.2803 39.0386 49.9251C38.7208 50.8906 38.4939 51.9433 38.3386 52.9234C38.1843 53.9063 38.1026 54.7974 38.1017 55.4845C38.1017 56.4637 38.1017 57.9445 38.1017 59.4206H18.5548V52.9482C18.5548 52.0286 18.1635 51.1532 17.4781 50.5388C16.8801 50.0014 16.1085 49.7111 15.3176 49.7111C15.2597 49.7111 15.2037 49.7174 15.1467 49.7212L12.4517 49.5063L12.3194 49.5209L12.0888 49.5338C11.5983 49.5338 11.1206 49.3565 10.7467 49.0313C10.315 48.6556 10.0595 48.1155 10.043 47.5414L10.0422 47.4882L8.8976 36.4467L4.60772 35.2635L4.55627 35.2534C4.42584 35.2277 4.31662 35.1413 4.26049 35.02L4.22275 34.8455L4.27607 34.6416L9.8133 24.8631L9.82525 23.3355V23.3152C9.82256 23.183 9.82162 23.0525 9.82162 22.9222C9.83088 17.3849 11.983 13.0013 15.4646 9.91024C18.9497 6.82646 23.8165 5.06454 29.2426 5.06454C29.7598 5.06454 30.2816 5.08106 30.8071 5.11329L30.8943 3.70505L30.8079 5.11329C37.3051 5.52204 42.0874 8.11435 45.3291 11.8815C48.5653 15.6514 50.2437 20.6586 50.2437 25.9058C50.2437 26.5954 50.2152 27.2889 50.1564 27.9843Z" fill="black"/>
</svg>
