<svg width="54" height="65" viewBox="0 0 54 65" fill="none" xmlns="http://www.w3.org/2000/svg">
<path d="M33.6617 3.05859H23.8703V17.9889C22.4075 17.6077 21.2001 17.4805 19.6101 17.4805C9.37387 17.4805 2.76074 23.9657 2.76074 33.9477C2.76074 44.3119 8.9923 49.716 20.946 49.716C24.9497 49.716 28.6381 49.3346 33.6618 48.381V3.05859H33.6617ZM23.8703 41.5785C22.4713 41.7687 21.5813 41.8318 20.5006 41.8318C15.4773 41.8318 12.7431 38.9714 12.7431 33.7571C12.7431 28.4166 15.604 25.3646 20.5646 25.3646C21.772 25.3646 22.7252 25.4917 23.8703 25.873V41.5785ZM49.2393 3.11121V13.1572H39.4475V3.11121H49.2393ZM39.4475 18.1795H49.2393V40.8786C49.2393 48.6991 48.6664 52.4501 46.9498 55.6931C45.3607 58.8091 43.2624 60.7794 38.9383 62.9414L29.8458 58.6177C34.1687 56.5834 36.2689 54.8041 37.6033 52.0689C39.0018 49.2711 39.4475 46.0286 39.4475 37.5081V18.1795Z" fill="black"/>
</svg>
