<svg width="60" height="60" viewBox="0 0 60 60" fill="none" xmlns="http://www.w3.org/2000/svg">
<g clip-path="url(#clip0_173_1527)">
<path d="M33.2719 43.8895C32.8938 43.748 32.4818 43.5531 32.063 43.3224L25.058 53.0047L24.5598 46.662H20.8374L20.3385 53.0057L13.3338 43.3224C12.9029 43.5638 12.4871 43.7615 12.124 43.8895C8.45676 45.1807 -0.554724 48.8945 0.0268772 55.8509C0.166565 57.5202 9.34563 59.2526 22.6982 59.2526C36.0502 59.2526 45.2303 57.5204 45.37 55.8509C45.9516 48.8877 36.9168 45.2526 33.2719 43.8895Z" fill="black"/>
<path d="M14.4273 29.5249C14.9371 32.4138 15.7941 34.9623 16.9234 36.2176C16.9234 37.7231 16.9234 38.8215 16.9234 39.7007C16.9234 39.7889 16.9079 39.8818 16.8821 39.9779L20.8373 41.8827V44.6766H24.5598V41.8819L28.5125 39.979C28.4878 39.883 28.4728 39.7898 28.4728 39.7008C28.4728 38.8215 28.4728 37.7231 28.4728 36.2177C29.6021 34.9624 30.4591 32.4138 30.969 29.525C32.1585 29.1005 32.8379 28.4209 33.6867 25.4478C34.5902 22.2808 32.3282 22.3884 32.3282 22.3884C34.1578 16.3326 31.7495 10.6413 27.7158 11.0591C24.9335 6.19182 15.6157 12.171 12.6949 11.7541C12.6949 13.4233 13.39 14.6749 13.39 14.6749C12.3751 16.6021 12.7666 20.4448 13.0527 22.3884C12.887 22.3855 10.8416 22.4068 11.7091 25.4478C12.5583 28.4208 13.2378 29.1003 14.4273 29.5249Z" fill="black"/>
<path d="M59.0259 7.2531C58.0886 5.29783 56.5492 3.67607 54.6452 2.53888C52.7394 1.40275 50.4633 0.749312 48.0195 0.747437C44.7657 0.749312 41.8012 1.9097 39.622 3.83205C38.533 4.79369 37.6388 5.94916 37.0158 7.2531C36.3915 8.55494 36.041 10.0061 36.041 11.5262C36.0401 13.4631 36.6125 15.2856 37.5926 16.8376C38.4298 18.1647 39.5619 19.2999 40.8973 20.1878L38.8862 25.2111L40.3384 25.0318C45.3554 24.4045 50.1579 22.5268 52.4388 21.5411C54.6059 20.7675 56.4764 19.4452 57.8229 17.7274C59.178 15.998 60.0016 13.8488 60.0001 11.5261C60.0016 10.0062 59.6491 8.55505 59.0259 7.2531ZM56.5636 16.4973C55.4363 17.9388 53.81 19.104 51.8848 19.7807L51.8586 19.7884L51.8324 19.8001C49.8587 20.657 45.8663 22.2129 41.6223 22.9517L43.0609 19.3629L42.3547 18.9587C40.9297 18.1445 39.763 17.0354 38.9598 15.7627C38.1558 14.4859 37.7146 13.0532 37.7133 11.5263C37.7133 10.3273 37.9861 9.1881 38.4902 8.13341C39.2448 6.55431 40.5318 5.17291 42.1836 4.18701C43.836 3.20123 45.8474 2.61564 48.0193 2.61658C50.9198 2.61564 53.5269 3.65767 55.3819 5.29701C56.3086 6.11615 57.0473 7.08072 57.5504 8.13341C58.054 9.1881 58.3269 10.3272 58.3279 11.5263C58.327 13.3525 57.6929 15.0529 56.5636 16.4973Z" fill="black"/>
<path d="M43.2954 10.3368C42.5772 10.3368 41.9949 10.9882 41.9949 11.7889C41.9949 12.5915 42.5771 13.242 43.2954 13.242C44.0138 13.242 44.5968 12.5915 44.5968 11.7889C44.5968 10.9882 44.0137 10.3368 43.2954 10.3368Z" fill="black"/>
<path d="M48.3136 10.3368C47.5947 10.3368 47.0117 10.9882 47.0117 11.7889C47.0117 12.5915 47.5948 13.242 48.3136 13.242C49.0319 13.242 49.6145 12.5915 49.6145 11.7889C49.6145 10.9882 49.0319 10.3368 48.3136 10.3368Z" fill="black"/>
<path d="M53.3301 10.3368C52.6118 10.3368 52.0291 10.9882 52.0291 11.7889C52.0291 12.5915 52.6117 13.242 53.3301 13.242C54.0494 13.242 54.6319 12.5915 54.6319 11.7889C54.632 10.9882 54.0494 10.3368 53.3301 10.3368Z" fill="black"/>
</g>
<defs>
<clipPath id="clip0_173_1527">
<rect width="60" height="60" fill="white"/>
</clipPath>
</defs>
</svg>
