<svg width="60" height="60" viewBox="0 0 60 60" fill="none" xmlns="http://www.w3.org/2000/svg">
<path d="M55 30C55 33.283 54.3533 36.534 53.097 39.567C51.8405 42.6003 49.9993 45.3563 47.6778 47.6778C45.3563 49.9993 42.6003 51.8405 39.567 53.097C36.534 54.3533 33.283 55 30 55C26.717 55 23.4661 54.3533 20.4329 53.097C17.3998 51.8405 14.6438 49.9993 12.3223 47.6778C10.0009 45.3563 8.15937 42.6003 6.903 39.567C5.64665 36.534 5 33.283 5 30C5 26.717 5.64665 23.466 6.90302 20.4329C8.15937 17.3998 10.0009 14.6438 12.3223 12.3223C14.6438 10.0009 17.3998 8.15937 20.4329 6.903C23.4661 5.64665 26.717 5 30 5C33.283 5 36.534 5.64665 39.567 6.90302C42.6003 8.15937 45.3563 10.0009 47.6778 12.3223C49.9993 14.6438 51.8405 17.3998 53.097 20.4329C54.3533 23.4661 55 26.717 55 30Z" stroke="black" stroke-width="3.75"/>
<path d="M40 30C40 33.283 39.7413 36.534 39.2388 39.567C38.7363 42.6003 37.9997 45.3563 37.071 47.6778C36.1425 49.9993 35.04 51.8405 33.8267 53.097C32.6135 54.3533 31.3133 55 30 55C28.6867 55 27.3865 54.3533 26.1733 53.097C24.9599 51.8405 23.8575 49.9993 22.9289 47.6778C22.0003 45.3563 21.2637 42.6003 20.7612 39.567C20.2586 36.534 20 33.283 20 30C20 26.717 20.2586 23.466 20.7612 20.4329C21.2637 17.3998 22.0003 14.6438 22.9289 12.3223C23.8575 10.0009 24.9599 8.15937 26.1733 6.903C27.3865 5.64665 28.6867 5 30 5C31.3133 5 32.6135 5.64665 33.8267 6.90302C35.04 8.15937 36.1425 10.0009 37.071 12.3223C37.9997 14.6438 38.7363 17.3998 39.2388 20.4329C39.7413 23.4661 40 26.717 40 30Z" stroke="black" stroke-width="3.75"/>
<path d="M5 30H55" stroke="black" stroke-width="3.75" stroke-linecap="round"/>
</svg>
