<svg width="64" height="65" viewBox="0 0 64 65" fill="none" xmlns="http://www.w3.org/2000/svg">
<path d="M46.5294 58.2594C46.3063 58.3775 46.325 58.415 46.5387 58.3062C46.6081 58.2781 46.6663 58.2387 46.7169 58.1919C46.7169 58.1525 46.7169 58.1525 46.5294 58.2594ZM46.9794 58.0156C46.8725 58.1037 46.8725 58.1037 47 58.0456C47.0675 58.0062 47.1275 57.9687 47.1275 57.9575C47.1275 57.9069 47.0975 57.9181 46.9794 58.0156ZM47.2719 57.8394C47.165 57.9275 47.165 57.9275 47.2925 57.8694C47.3619 57.83 47.42 57.7887 47.42 57.7794C47.42 57.7325 47.39 57.7419 47.2719 57.8394ZM47.5681 57.665C47.4613 57.7531 47.4613 57.7531 47.585 57.6931C47.6544 57.6556 47.7125 57.6162 47.7125 57.605C47.7125 57.5581 47.6825 57.5675 47.5681 57.665ZM47.9675 57.4006C47.7631 57.5375 47.6919 57.6256 47.8794 57.5281C48.005 57.4512 48.2188 57.2825 48.1812 57.2825C48.1006 57.3125 48.0331 57.3631 47.9656 57.4006H47.9675ZM30.0369 2.02062C29.9 2.02999 29.4894 2.06749 29.1294 2.09749C20.6019 2.86999 12.6238 7.45999 7.56687 14.5306C4.77125 18.4062 2.95625 22.9081 2.27187 27.635C2.03 29.285 2 29.7725 2 32.0094C2 34.2444 2.03 34.7244 2.27187 36.3744C3.905 47.645 11.9225 57.1062 22.79 60.6125C24.7456 61.2369 26.795 61.6681 29.1294 61.9325C30.0369 62.03 33.9613 62.03 34.8688 61.9325C38.9038 61.4825 42.3106 60.4869 45.6819 58.7675C46.1994 58.505 46.2969 58.4356 46.2275 58.3775C44.5775 56.2006 42.9575 54.0219 41.3356 51.8244L36.5413 45.35L30.5356 36.4531C28.5331 33.4756 26.5231 30.5056 24.4812 27.5581C24.4606 27.5581 24.4344 31.5125 24.4231 36.335C24.4025 44.7819 24.4025 45.125 24.2956 45.32C24.1887 45.5544 24.0125 45.7494 23.7781 45.8581C23.5925 45.9462 23.4256 45.965 22.5388 45.965H21.5244L21.26 45.8C21.095 45.6931 20.9581 45.545 20.87 45.3706L20.7425 45.1062L20.7519 33.3481L20.7725 21.59L20.9581 21.3556C21.0763 21.2112 21.2225 21.0931 21.3875 21.005C21.6331 20.8869 21.7306 20.8681 22.745 20.8681C23.9356 20.8681 24.1325 20.915 24.4456 21.2581C26.8756 24.8806 29.2981 28.5125 31.6812 32.1556C35.5794 38.0656 40.9006 46.13 43.5163 50.0862L48.2731 57.2844L48.5075 57.1287C50.7931 55.6044 52.8725 53.7894 54.6669 51.7194C58.4469 47.3919 60.8994 42.0687 61.73 36.3875C61.9719 34.7375 62.0019 34.2481 62.0019 32.0131C62.0019 29.7762 61.9719 29.2981 61.73 27.6481C60.0969 16.3775 52.0794 6.91624 41.2119 3.40812C39.1794 2.76499 37.0887 2.32624 34.9719 2.10124C34.4037 2.04312 30.5263 1.97374 30.0388 2.02437L30.0369 2.02062ZM42.3125 20.165C42.5956 20.3 42.8094 20.555 42.9069 20.8475C42.9575 21.005 42.9669 24.2656 42.9575 31.61L42.9369 42.155L41.0825 39.305L39.2169 36.4531V28.7975C39.2169 23.8344 39.2375 21.0519 39.2638 20.915C39.3519 20.6019 39.5656 20.3394 39.8506 20.1744C40.0831 20.0562 40.1731 20.0469 41.1012 20.0469C41.9694 20.0469 42.1175 20.0562 42.3125 20.165Z" fill="black"/>
</svg>
