<svg width="60" height="60" viewBox="0 0 60 60" fill="none" xmlns="http://www.w3.org/2000/svg">
<g clip-path="url(#clip0_174_1629)">
<path d="M59.0625 44.79V37.7091L55.5666 36.8138C55.2928 35.9278 54.9394 35.0719 54.5119 34.2591L56.3494 31.1569L51.3431 26.1497L48.24 27.9881C47.4281 27.5597 46.5722 27.2063 45.6862 26.9325L44.79 23.4375H37.7091L36.8138 26.9335C35.9278 27.2072 35.0719 27.5606 34.26 27.9891L31.1569 26.1506L30.9375 26.3719V23.4375H28.125C27.3347 23.4375 26.5753 23.1019 26.0428 22.516C25.5028 21.9225 25.2488 21.1528 25.3256 20.3466C25.4616 18.9263 26.7619 17.8125 28.2863 17.8125H30.9375V9.37502C30.9375 7.8244 29.6756 6.56252 28.125 6.56252H20.625V5.78627C20.625 3.30565 18.7669 1.18596 16.395 0.960021C15.075 0.830646 13.7597 1.2694 12.7847 2.15627C11.8097 3.04221 11.25 4.30783 11.25 5.62502V6.56252H3.75C2.19937 6.56252 0.9375 7.8244 0.9375 9.37502V17.8125H3.58875C5.11313 17.8125 6.41344 18.9263 6.54938 20.3456C6.62625 21.1519 6.37219 21.9225 5.83219 22.515C5.29969 23.1019 4.54031 23.4375 3.75 23.4375H0.9375V31.875C0.9375 33.4256 2.19937 34.6875 3.75 34.6875H13.125V32.0363C13.125 30.5119 14.2378 29.2106 15.6581 29.0756C16.4662 29.0072 17.2359 29.2538 17.8284 29.7938C18.4144 30.3253 18.75 31.0838 18.75 31.875V34.6875H27.7884C27.4547 35.3728 27.1603 36.0797 26.9334 36.8147L23.4375 37.71V44.791L26.9334 45.6863C27.2072 46.5722 27.5606 47.4281 27.9881 48.241L26.1506 51.3431L31.1569 56.3503L34.26 54.5119C35.0719 54.9403 35.9278 55.2938 36.8138 55.5675L37.71 59.0625H44.7909L45.6862 55.5666C46.5722 55.2928 47.4281 54.9394 48.24 54.511L51.3431 56.3494L56.3494 51.3422L54.5119 48.24C54.9403 47.4282 55.2928 46.5722 55.5666 45.6853L59.0625 44.79ZM19.0903 28.4063C18.1153 27.5194 16.7972 27.0778 15.48 27.21C13.1081 27.436 11.25 29.5556 11.25 32.0363V32.8125H3.75C3.23344 32.8125 2.8125 32.3925 2.8125 31.875V25.3125H3.75C5.06813 25.3125 6.33188 24.7528 7.21969 23.7769C8.10563 22.8019 8.5425 21.4866 8.41594 20.1675C8.18906 17.7956 6.06938 15.9375 3.58875 15.9375H2.8125V9.37502C2.8125 8.85752 3.23344 8.43752 3.75 8.43752H13.125V5.62502C13.125 4.83377 13.4606 4.07533 14.0466 3.54283C14.64 3.00377 15.4078 2.75346 16.2169 2.82471C17.6372 2.96065 18.75 4.2619 18.75 5.78627V8.43752H28.125C28.6416 8.43752 29.0625 8.85752 29.0625 9.37502V15.9375H28.2863C25.8056 15.9375 23.6859 17.7956 23.4591 20.1685C23.3334 21.4866 23.7694 22.8028 24.6553 23.7778C25.5431 24.7528 26.8069 25.3125 28.125 25.3125H29.0625V28.2469L26.1516 31.1578L27.1313 32.8125H20.625V31.875C20.625 30.5578 20.0653 29.2922 19.0903 28.4063ZM54.0516 44.1375L53.9091 44.6663C53.6128 45.7669 53.1787 46.8169 52.6191 47.7872L52.3453 48.2625L53.9934 51.045L51.045 53.9944L48.2625 52.3453L47.7881 52.6191C46.8169 53.1788 45.7659 53.6128 44.6653 53.9091L44.1366 54.0516L43.335 57.1875H39.1659L38.3634 54.0516L37.8347 53.9091C36.7341 53.6128 35.6841 53.1788 34.7119 52.6191L34.2375 52.3453L31.455 53.9944L28.5066 51.045L30.1547 48.2625L29.8809 47.7872C29.3212 46.8169 28.8872 45.7669 28.5909 44.6663L28.4484 44.1375L25.3125 43.335V39.166L28.4484 38.3635L28.5909 37.8347C28.8872 36.7341 29.3212 35.6841 29.8809 34.7138L30.1547 34.2385L28.5066 31.456L31.455 28.5066L34.2375 30.1556L34.7119 29.8819C35.6831 29.3222 36.7341 28.8881 37.8347 28.5919L38.3634 28.4494L39.165 25.3125H43.3341L44.1366 28.4485L44.6653 28.591C45.7659 28.8872 46.8159 29.3213 47.7881 29.881L48.2625 30.1547L51.045 28.5056L53.9934 31.455L52.3453 34.2375L52.6191 34.7128C53.1787 35.6831 53.6128 36.7331 53.9091 37.8338L54.0516 38.3625L57.1875 39.165V43.3341L54.0516 44.1375Z" fill="black"/>
<path d="M41.25 33.75C37.1147 33.75 33.75 37.1147 33.75 41.25C33.75 45.3853 37.1147 48.75 41.25 48.75C42.8813 48.75 44.4375 48.2278 45.75 47.2406L44.6231 45.7425C43.6378 46.4831 42.4716 46.875 41.25 46.875C38.1478 46.875 35.625 44.3522 35.625 41.25C35.625 38.1478 38.1478 35.625 41.25 35.625C44.3522 35.625 46.875 38.1478 46.875 41.25C46.875 42.4716 46.4841 43.6378 45.7425 44.6241L47.2416 45.75C48.2278 44.4366 48.75 42.8813 48.75 41.25C48.75 37.1147 45.3853 33.75 41.25 33.75Z" fill="black"/>
<path d="M41.25 30C35.0466 30 30 35.0466 30 41.25C30 47.4534 35.0466 52.5 41.25 52.5C47.4534 52.5 52.5 47.4534 52.5 41.25C52.5 35.0466 47.4534 30 41.25 30ZM41.25 50.625C36.0806 50.625 31.875 46.4194 31.875 41.25C31.875 36.0806 36.0806 31.875 41.25 31.875C46.4194 31.875 50.625 36.0806 50.625 41.25C50.625 46.4194 46.4194 50.625 41.25 50.625Z" fill="black"/>
<path d="M50.625 6.5625H48.75V8.4375H50.625V6.5625Z" fill="black"/>
<path d="M50.625 10.3125H48.75V12.1875H50.625V10.3125Z" fill="black"/>
<path d="M52.5 8.4375H50.625V10.3125H52.5V8.4375Z" fill="black"/>
<path d="M48.75 8.4375H46.875V10.3125H48.75V8.4375Z" fill="black"/>
<path d="M41.25 14.0625H39.375V15.9375H41.25V14.0625Z" fill="black"/>
<path d="M41.25 17.8125H39.375V19.6875H41.25V17.8125Z" fill="black"/>
<path d="M43.125 15.9375H41.25V17.8125H43.125V15.9375Z" fill="black"/>
<path d="M39.375 15.9375H37.5V17.8125H39.375V15.9375Z" fill="black"/>
<path d="M54.375 17.8125H52.5V19.6875H54.375V17.8125Z" fill="black"/>
<path d="M54.375 21.5625H52.5V23.4375H54.375V21.5625Z" fill="black"/>
<path d="M56.25 19.6875H54.375V21.5625H56.25V19.6875Z" fill="black"/>
<path d="M52.5 19.6875H50.625V21.5625H52.5V19.6875Z" fill="black"/>
<path d="M36.5625 2.8125H34.6875V4.6875H36.5625V2.8125Z" fill="black"/>
<path d="M36.5625 6.5625H34.6875V8.4375H36.5625V6.5625Z" fill="black"/>
<path d="M38.4375 4.6875H36.5625V6.5625H38.4375V4.6875Z" fill="black"/>
<path d="M34.6875 4.6875H32.8125V6.5625H34.6875V4.6875Z" fill="black"/>
<path d="M18.75 44.0625H16.875V45.9375H18.75V44.0625Z" fill="black"/>
<path d="M18.75 47.8125H16.875V49.6875H18.75V47.8125Z" fill="black"/>
<path d="M20.625 45.9375H18.75V47.8125H20.625V45.9375Z" fill="black"/>
<path d="M16.875 45.9375H15V47.8125H16.875V45.9375Z" fill="black"/>
<path d="M9.375 38.4375H7.5V40.3125H9.375V38.4375Z" fill="black"/>
<path d="M9.375 42.1875H7.5V44.0625H9.375V42.1875Z" fill="black"/>
<path d="M11.25 40.3125H9.375V42.1875H11.25V40.3125Z" fill="black"/>
<path d="M7.5 40.3125H5.625V42.1875H7.5V40.3125Z" fill="black"/>
</g>
<defs>
<clipPath id="clip0_174_1629">
<rect width="60" height="60" fill="white"/>
</clipPath>
</defs>
</svg>
