<svg width="60" height="60" viewBox="0 0 60 60" fill="none" xmlns="http://www.w3.org/2000/svg">
<g clip-path="url(#clip0_174_1638)">
<path d="M56.6632 25.1613C56.4 23.7068 56.0129 22.2668 55.5087 20.8597L58.4003 19.1903L53.5616 10.8097L50.6652 12.4819C49.7042 11.3506 48.6503 10.2968 47.519 9.33581L49.1913 6.43935L40.8106 1.60065L39.1413 4.49226C37.7332 3.9871 36.2932 3.60097 34.8387 3.33677V0H25.1613V3.33677C23.7068 3.6 22.2668 3.9871 20.8597 4.49129L19.1903 1.59968L10.8097 6.43839L12.4819 9.33484C11.3506 10.2958 10.2968 11.3497 9.33581 12.481L6.43839 10.8097L1.59968 19.1903L4.49129 20.8597C3.9871 22.2668 3.60097 23.7068 3.33677 25.1613H0V34.8387H3.33677C3.6 36.2932 3.9871 37.7332 4.49129 39.1403L1.59968 40.8097L6.43839 49.1903L9.33484 47.5181C10.2958 48.6494 11.3497 49.7032 12.481 50.6642L10.8087 53.5606L19.1894 58.3994L20.8587 55.5077C22.2658 56.0119 23.7058 56.399 25.1603 56.6623V60H34.8377V56.6632C36.2923 56.4 37.7323 56.0129 39.1394 55.5087L40.8087 58.4003L49.1894 53.5616L47.5171 50.6652C48.6484 49.7042 49.7023 48.6503 50.6632 47.519L53.5597 49.1913L58.3984 40.8106L55.5068 39.1413C56.011 37.7342 56.3981 36.2942 56.6613 34.8397H60V34.8387V25.1613H56.6632ZM58.0645 32.9032H55.0074L54.8845 33.7297C54.6087 35.5906 54.1132 37.4352 53.4126 39.2139L53.1077 39.99L55.7555 41.5181L52.8523 46.5455L50.2006 45.0155L49.681 45.6668C48.4994 47.1484 47.1494 48.4994 45.6677 49.68L45.0164 50.1997L46.5465 52.8513L41.519 55.7545L39.99 53.1068L39.2139 53.4116C37.4352 54.1123 35.5906 54.6068 33.7297 54.8835L32.9032 55.0074V58.0645H27.0968V55.0074L26.2703 54.8845C24.4094 54.6087 22.5648 54.1132 20.7861 53.4126L20.01 53.1077L18.481 55.7555L13.4535 52.8523L14.9835 50.2006L14.3323 49.681C12.8506 48.4994 11.4997 47.1494 10.319 45.6677L9.79935 45.0164L7.14774 46.5465L4.24452 41.519L6.89226 39.99L6.58742 39.2139C5.88677 37.4352 5.39226 35.5906 5.11548 33.7297L4.99258 32.9032H1.93548V27.0968H4.99258L5.11548 26.2703C5.39129 24.4094 5.88677 22.5648 6.58742 20.7861L6.89226 20.01L4.24452 18.481L7.14774 13.4535L9.79935 14.9835L10.319 14.3323C11.5006 12.8506 12.8506 11.4997 14.3323 10.319L14.9835 9.79935L13.4535 7.14774L18.481 4.24452L20.01 6.89226L20.7861 6.58742C22.5648 5.88677 24.4094 5.39226 26.2703 5.11548L27.0968 4.99258V1.93548H32.9032V4.99258L33.7297 5.11548C35.5906 5.39129 37.4352 5.88677 39.2139 6.58742L39.99 6.89226L41.519 4.24452L46.5465 7.14774L45.0164 9.79935L45.6677 10.319C47.1494 11.5006 48.5003 12.8506 49.681 14.3323L50.2006 14.9835L52.8523 13.4535L55.7555 18.481L53.1077 20.01L53.4126 20.7861C54.1132 22.5648 54.6077 24.4094 54.8845 26.2703L55.0074 27.0968H58.0645V32.9032Z" fill="black"/>
<path d="M30.9677 44.5161H29.0322V46.4516H30.9677V44.5161Z" fill="black"/>
<path d="M11.6128 20.6623V41.2742L29.0321 49.0171V50.3226H30.9676V49.0161L48.387 41.2732V20.6623L29.9999 12.4897L11.6128 20.6623ZM35.8063 30C35.8063 31.8919 34.8754 33.6726 33.3173 34.7623L32.9031 35.0507V36.7742H30.9676V32.7252C32.0912 32.3245 32.9031 31.26 32.9031 30C32.9031 28.3994 31.6005 27.0968 29.9999 27.0968C28.3992 27.0968 27.0967 28.3994 27.0967 30C27.0967 31.26 27.9086 32.3245 29.0321 32.7252V36.7742H27.0967V35.0507L26.6825 34.7623C25.1244 33.6726 24.1934 31.8919 24.1934 30C24.1934 26.7977 26.7976 24.1936 29.9999 24.1936C33.2021 24.1936 35.8063 26.7977 35.8063 30ZM32.9031 38.7097V40.6452H27.0967V38.7097H32.9031ZM29.0321 30C29.0321 29.4658 29.4657 29.0323 29.9999 29.0323C30.5341 29.0323 30.9676 29.4658 30.9676 30C30.9676 30.5342 30.5341 30.9677 29.9999 30.9677C29.4657 30.9677 29.0321 30.5342 29.0321 30ZM29.0321 15.0377V22.3248C26.9486 22.5861 25.1234 23.6777 23.8925 25.2581L14.9631 21.2903L29.0321 15.0377ZM46.4515 40.0171L29.9999 47.3274L13.5483 40.0161V22.7797L22.8938 26.9332C22.4863 27.8748 22.258 28.9113 22.258 30C22.258 32.3526 23.3341 34.5726 25.1612 36.0387V36.7742H23.2257V38.7097H25.1612V42.5807H34.8386V38.7097H36.7741V36.7742H34.8386V36.0387C36.6657 34.5716 37.7418 32.3516 37.7418 30C37.7418 28.9113 37.5134 27.8748 37.106 26.9332L46.4515 22.7797V40.0171ZM30.9676 15.0377L45.0367 21.2903L36.1073 25.259C34.8763 23.6777 33.0512 22.5871 30.9676 22.3248V15.0377Z" fill="black"/>
</g>
<defs>
<clipPath id="clip0_174_1638">
<rect width="60" height="60" fill="white"/>
</clipPath>
</defs>
</svg>
